<?xml version="1.0" encoding="utf-8"?>
<!-- Generator: Adobe Illustrator 22.0.1, SVG Export Plug-In . SVG Version: 6.00 Build 0)  -->
<svg version="1.1" id="Layer_1" xmlns="http://www.w3.org/2000/svg" xmlns:xlink="http://www.w3.org/1999/xlink" x="0px" y="0px"
	 viewBox="0 0 32.3 44.3" style="enable-background:new 0 0 32.3 44.3;" xml:space="preserve">
<style type="text/css">
	.st0{fill:url(#SVGID_1_);}
	.st1{fill:url(#SVGID_2_);enable-background:new    ;}
</style>
<title>Asset 7_1</title>
<g id="Layer_2_1_">
	<g id="Objects">
		
			<linearGradient id="SVGID_1_" gradientUnits="userSpaceOnUse" x1="-207.2752" y1="-246.0859" x2="-207.2752" y2="-188.0059" gradientTransform="matrix(0.93 -0.38 -0.38 -0.93 132.71 -247.94)">
			<stop  offset="0" style="stop-color:#5CA0FF"/>
			<stop  offset="0.35" style="stop-color:#7EBDFF"/>
			<stop  offset="1" style="stop-color:#BBEFFF"/>
		</linearGradient>
		<path class="st0" d="M29.6,9.6c-3.2-7.9-12.1-11.7-20-8.5C9.4,1.2,9.2,1.3,9,1.4C1.7,4.8-1.8,13.3,1,20.9c1.5,4.1,4.7,7.3,8.8,8.8
			c3.4,1.4,6.1,4.1,7.4,7.5l0.2,0.5L29.3,33l-0.2-0.4c-1.4-3.6-1.3-7.6,0.3-11.1C31.1,17.7,31.2,13.4,29.6,9.6z"/>
		
			<linearGradient id="SVGID_2_" gradientUnits="userSpaceOnUse" x1="10.9818" y1="30.4786" x2="51.0218" y2="-33.6714" gradientTransform="matrix(1 0 0 -1 0 46)">
			<stop  offset="0" style="stop-color:#0F83F7"/>
			<stop  offset="1" style="stop-color:#5CAEFF"/>
		</linearGradient>
		<path class="st1" d="M30.6,40.5l-8.7,3.5c-1.3,0.5-2.7,0-3.4-1.2l-2.6-4.4c-0.5-0.8-0.2-1.9,0.6-2.3c0.1,0,0.1-0.1,0.2-0.1
			l12.1-4.9c0.9-0.3,1.8,0.1,2.2,1c0,0.1,0,0.1,0.1,0.2l1.2,5C32.5,38.7,31.8,40,30.6,40.5z"/>
	</g>
</g>
</svg>
