<?xml version="1.0" encoding="utf-8"?>
<!-- Generator: Adobe Illustrator 22.0.1, SVG Export Plug-In . SVG Version: 6.00 Build 0)  -->
<svg version="1.1" id="Layer_1" xmlns="http://www.w3.org/2000/svg" xmlns:xlink="http://www.w3.org/1999/xlink" x="0px" y="0px"
	 viewBox="0 0 57.5 22.7" style="enable-background:new 0 0 57.5 22.7;" xml:space="preserve">
<style type="text/css">
	.st0{opacity:0.4;}
	.st1{clip-path:url(#SVGID_2_);}
	.st2{fill:#E0005B;}
	.st3{opacity:0.4;fill:#FF5C9E;enable-background:new    ;}
	.st4{fill:url(#SVGID_3_);}
</style>
<title>Asset 8</title>
<g id="Layer_2_1_">
	<g id="Objects">
		<g class="st0">
			<g>
				<g>
					<defs>
						<path id="SVGID_1_" d="M17.6,9.3c-1.1,6.2,3,12.1,9.2,13.2c6.2,1.1,12.1-3,13.2-9.2c1.1-6.2-3-12.1-9.2-13.2c0,0,0,0,0,0
							C24.6-0.9,18.7,3.2,17.6,9.3C17.6,9.3,17.6,9.3,17.6,9.3z"/>
					</defs>
					<clipPath id="SVGID_2_">
						<use xlink:href="#SVGID_1_"  style="overflow:visible;"/>
					</clipPath>
					<g class="st1">
						<path class="st2" d="M17.6,9.3c-1.1,6.2,3,12.1,9.2,13.2c6.2,1.1,12.1-3,13.2-9.2c1.1-6.2-3-12.1-9.2-13.2c0,0,0,0,0,0
							C24.6-0.9,18.7,3.2,17.6,9.3C17.6,9.3,17.6,9.3,17.6,9.3z"/>
						<path id="L" class="st3" d="M6.7,4.3C5.8,4.2,3.1,1.9,5,1c0.4-0.2,2.4-1.1,8.3,0C21,2.3,27.3,5.6,35.8,7.4
							c7.3,1.5,5.2-1,13,0.5c4.3,0.8,8.5,2,12.7,3.6c9.9,4.1,5.8,17.4-12.8,6.8C34.6,10.1,13.3,5.1,6.7,4.3z"/>
					</g>
				</g>
			</g>
			
				<linearGradient id="SVGID_3_" gradientUnits="userSpaceOnUse" x1="-1461.3239" y1="-45.9901" x2="-1400.4939" y2="51.4599" gradientTransform="matrix(-1 0 0 -1 -1395.96 24)">
				<stop  offset="0" style="stop-color:#2C27CE"/>
				<stop  offset="0.65" style="stop-color:#EF1D68"/>
				<stop  offset="1" style="stop-color:#EFBA92"/>
			</linearGradient>
			<path class="st4" d="M40,9.8c0.1,0.6,0.1,1.3,0.1,1.9c3.7,1.1,6,2.3,5.8,3s-2.7,0.9-6.5,0.6c-3.7-0.4-7.5-0.9-11.1-1.7
				c-3.7-0.7-7.3-1.6-10.9-2.7c-3.7-1.2-6-2.3-5.8-3s2.7-0.9,6.5-0.6c0.2-0.6,0.5-1.2,0.8-1.7C8.1,4.2,0.3,4.1,0,5.7
				s6.9,4.4,17.5,7.1c3.2,0.8,6.8,1.6,10.5,2.3s7.3,1.3,10.7,1.8c10.7,1.5,18.5,1.6,18.8,0S50.5,12.4,40,9.8z"/>
		</g>
	</g>
</g>
</svg>
