<?xml version="1.0" encoding="utf-8"?>
<!-- Generator: Adobe Illustrator 22.0.1, SVG Export Plug-In . SVG Version: 6.00 Build 0)  -->
<svg version="1.1" id="Layer_1" xmlns="http://www.w3.org/2000/svg" xmlns:xlink="http://www.w3.org/1999/xlink" x="0px" y="0px"
	 viewBox="0 0 197.4 239.2" style="enable-background:new 0 0 197.4 239.2;" xml:space="preserve">
<style type="text/css">
	.st0{clip-path:url(#SVGID_2_);}
	.st1{fill:url(#SVGID_3_);}
	.st2{clip-path:url(#SVGID_5_);}
	.st3{fill:url(#SVGID_6_);}
	.st4{fill:url(#SVGID_7_);}
	.st5{fill:url(#SVGID_8_);}
</style>
<title>Asset 1</title>
<g>
	<g>
		<g id="Layer_2_1_">
			<defs>
				<rect id="SVGID_1_" x="-53.4" width="250" height="239.4"/>
			</defs>
			<clipPath id="SVGID_2_">
				<use xlink:href="#SVGID_1_"  style="overflow:visible;"/>
			</clipPath>
			<g id="Objects" class="st0">
				
					<linearGradient id="SVGID_3_" gradientUnits="userSpaceOnUse" x1="258.9273" y1="-55.0763" x2="174.9273" y2="115.5836" gradientTransform="matrix(1 0 0 -1 -36.9 141.94)">
					<stop  offset="0" style="stop-color:#5CD6FF"/>
					<stop  offset="1" style="stop-color:#B3EFFF"/>
				</linearGradient>
				<path class="st1" d="M1.4,162.8c-2.9,40.8,46.1,63.1,67.6,58.5c23.8-5.1,38-32.3,73.3,1.5c12,11.5,29,18.6,45.7,15.7
					c12-2.1,23.1-9.6,29-20.3c3.3-6,4.9-12.6,7.6-18.9s6.8-12.3,13.1-14.9c6-2.5,13-1.3,19.1,1c14.7,5.5,26.8,16.9,42.1,21.1
					c12.9,3.5,28.8,2.5,40.3-4.6c15.1-9.3,21.9-27.4,26.5-43.6c5.3-19.1,7-39,5-58.8c-2.4-25.2-10.3-49.7-21.4-72.4
					c-9.9-20.2-22.6-39.4-39.2-54.6c-26.3-24.1-73.2-45.1-102.6-14.4C172-5,210.9,32.5,166.1,25c-26.8-4.5-72.5,5.3-63.3,61.6
					S5.6,104.1,1.4,162.8z"/>
				<g>
					<defs>
						<path id="SVGID_4_" d="M1.4,162.8c-2.9,40.8,46.1,63.1,67.6,58.5c23.8-5.1,38-32.3,73.3,1.5c12,11.5,29,18.6,45.7,15.7
							c12-2.1,23.1-9.6,29-20.3c3.3-6,4.9-12.6,7.6-18.9s6.8-12.3,13.1-14.9c6-2.5,13-1.3,19.1,1c14.7,5.5,26.8,16.9,42.1,21.1
							c12.9,3.5,28.8,2.5,40.3-4.6c15.1-9.3,21.9-27.4,26.5-43.6c5.3-19.1,7-39,5-58.8c-2.4-25.2-10.3-49.7-21.4-72.4
							c-9.9-20.2-22.6-39.4-39.2-54.6c-26.3-24.1-73.2-45.1-102.6-14.4C172-5,210.9,32.5,166.1,25c-26.8-4.5-72.5,5.3-63.3,61.6
							S5.6,104.1,1.4,162.8z"/>
					</defs>
					<clipPath id="SVGID_5_">
						<use xlink:href="#SVGID_4_"  style="overflow:visible;"/>
					</clipPath>
					<g class="st2">
						
							<linearGradient id="SVGID_6_" gradientUnits="userSpaceOnUse" x1="199.2935" y1="-15.762" x2="326.6234" y2="209.568" gradientTransform="matrix(1 0 0 -1 -36.9 141.94)">
							<stop  offset="0" style="stop-color:#5CD6FF"/>
							<stop  offset="1" style="stop-color:#B3EFFF"/>
						</linearGradient>
						<path class="st3" d="M7.3,160.4c1.5,38.2,40,54.9,59.5,48.4c21.6-7.2,32-33.9,68.2-6.1c12.3,9.4,28.8,14.4,44,9.9
							c11-3.2,20.5-11.3,24.9-21.8c2.4-5.9,3.3-12.3,5.1-18.3s5.1-12.2,10.6-15.2c5.4-2.9,12-2.5,17.9-1c14.3,3.6,26.6,13,41.3,15.3
							c12.3,2,27-0.6,37-8.4c13-10.2,17.5-27.7,20.1-43.2c3-18.3,2.5-37-1.5-55.1c-4.9-23.1-14.6-45.1-27.3-65.1
							c-11.3-17.8-25-34.3-42-46.7c-26.9-19.7-72.6-34.4-96.8-2.9c-29.1,37.9,10.8,68.8-31.6,66.4C111.5,15,70.1,28.8,84.3,80.2
							S5.2,105.4,7.3,160.4z"/>
						
							<linearGradient id="SVGID_7_" gradientUnits="userSpaceOnUse" x1="230.4489" y1="-42.6811" x2="160.7889" y2="106.3189" gradientTransform="matrix(1 0 0 -1 -36.9 141.94)">
							<stop  offset="0" style="stop-color:#5CD6FF"/>
							<stop  offset="1" style="stop-color:#B3EFFF"/>
						</linearGradient>
						<path class="st4" d="M-8.6,153.5c6.5,37.6,46.9,49.2,65.4,40.2c20.4-10,27.2-37.8,66.8-15c13.5,7.7,30.5,10.4,45,4
							c10.4-4.6,18.9-13.9,21.8-24.9c1.6-6.1,1.6-12.6,2.7-18.8s3.4-12.7,8.5-16.5c4.9-3.6,11.5-4.1,17.6-3.4
							c14.6,1.7,28.1,9.3,42.9,9.7c12.5,0.3,26.7-4.1,35.5-13.2c11.6-11.8,13.7-29.8,14.3-45.5c0.5-18.5-2.4-37-8.7-54.4
							c-7.9-22.3-20.5-42.8-35.6-60.9C254.1-61.5,238.3-76,219.8-86c-29.2-16-76.5-24.5-96.3,9.9c-23.9,41.4,19.8,66.8-22.6,70
							c-25.3,1.9-64.6,21-43.7,70.1S-17.9,99.3-8.6,153.5z"/>
						
							<linearGradient id="SVGID_8_" gradientUnits="userSpaceOnUse" x1="210.6909" y1="-36.305" x2="77.6909" y2="199.3549" gradientTransform="matrix(1 0 0 -1 -36.9 141.94)">
							<stop  offset="0" style="stop-color:#5CD6FF"/>
							<stop  offset="1" style="stop-color:#B3EFFF"/>
						</linearGradient>
						<path class="st5" d="M-14.7,155c10.6,32.7,48,37.8,63.3,27.4c16.9-11.5,19.4-37.1,57.6-21.9c13,5.2,28.4,5.4,40.5-2.2
							c8.9-5.5,14.8-14.7,16.2-25c0.7-5.7-0.2-11.4-0.1-17.1s1.4-11.8,5.5-15.8c3.9-3.9,9.7-5.1,15.2-5.2
							c13.2-0.4,26.2,4.7,39.4,3.1c11.1-1.3,23.2-7.1,30-16.3c8.8-12,8.4-28.2,6.9-42.3C258,23.1,253,7.1,245.2-7.6
							c-9.9-18.9-23.7-35.5-39.5-49.7c-14.1-12.6-30-23.5-47.8-30.2c-28.1-10.5-71.2-12-84.5,21.1C57.5-26.5,99.6-9.5,62.4-1.2
							c-22.3,4.9-54.8,27-29.9,68S-29.9,107.9-14.7,155z"/>
					</g>
				</g>
			</g>
		</g>
	</g>
</g>
</svg>
